<?xml version="1.0" encoding="utf-8"?>
<!-- Generator: Adobe Illustrator 25.0.0, SVG Export Plug-In . SVG Version: 6.00 Build 0)  -->
<svg version="1.1" id="レイヤー_1" xmlns="http://www.w3.org/2000/svg" xmlns:xlink="http://www.w3.org/1999/xlink" x="0px"
	 y="0px" viewBox="0 0 76.2 44" style="enable-background:new 0 0 76.2 44;" xml:space="preserve">
<style type="text/css">
	.st0{enable-background:new    ;}
	.st1{fill:#FFFFFF;}
	.st2{fill:none;stroke:#FFFFFF;stroke-miterlimit:10;}
</style>
<g id="レイヤー_2_1_">
	<g id="レイヤー_1-2">
		<g class="st0">
			<path class="st1" d="M11.4,22.5c-0.1,0.1-0.1,0.1-0.2,0.1c-0.1,0-0.3,0.1-0.4,0.1c-0.3,0.2-0.6,0.2-1,0.2c0,0,0,0-0.1,0
				C9.6,23,9.4,23,9.2,23.1c-0.1,0-0.3,0-0.4,0c-0.1,0-0.3-0.1-0.4-0.1c-0.2,0-0.4,0-0.6,0c-0.2,0-0.3,0.1-0.5,0.2
				c-0.2,0.1-0.3,0.2-0.5,0.3c-0.1,0-0.1,0.1-0.1,0.2c0,0.2,0.1,0.3,0.1,0.5C7,25,7.3,25.9,7.5,26.9c0.1,0.3,0.1,0.7,0,1
				c0,0.1-0.1,0.2-0.3,0.1c-0.2,0-0.4-0.2-0.5-0.4c-0.1-0.2-0.2-0.4-0.4-0.6c-0.1-0.1-0.1-0.1,0-0.1c0,0,0,0,0,0
				c0-0.1,0-0.2,0.1-0.2s0-0.2,0-0.2c-0.1-0.6-0.3-1.3-0.5-1.9c-0.2-0.7-0.4-1.3-0.6-1.9c0-0.1-0.1-0.1-0.1-0.1
				c-0.2,0.2-0.5,0.4-0.7,0.6c-0.2,0.2-0.4,0.5-0.5,0.7C4.1,24,4,24.1,3.9,24.1c-0.1,0.1-0.3,0.1-0.4,0c-0.2,0-0.4-0.1-0.6-0.2
				c-0.2-0.1-0.3-0.3-0.4-0.5c0-0.1,0-0.2,0-0.2c0.2-0.2,0.3-0.4,0.5-0.6c0.1,0,0.1,0,0.2,0l0.2,0C4,22.3,4.6,22,5.2,21.7
				c0.1,0,0.1-0.1,0.1-0.1c-0.1-0.3-0.2-0.5-0.2-0.8c-0.2-0.6-0.3-1.3-0.4-1.9c0-0.1,0-0.3,0.2-0.3c0.2-0.1,0.3-0.2,0.5-0.3
				c0.1-0.1,0.2,0,0.2,0c0.3,0.4,0.6,0.9,0.7,1.4c0,0.2,0.1,0.3,0,0.5c0,0,0,0-0.1,0c0.1,0.3,0.1,0.6,0.2,0.9c0,0,0.1,0,0.1,0
				c0.4-0.2,0.8-0.4,1.3-0.6l0.8-0.3c0.2,0,0.3-0.1,0.4-0.2c0.1-0.1,0.3-0.1,0.4,0c0.3,0.2,0.7,0.4,1,0.6c0.3,0.2,0.5,0.5,0.7,0.8
				c0.2,0.3,0.3,0.5,0.3,0.8C11.5,22.3,11.5,22.4,11.4,22.5z M8.9,21.2c0-0.1-0.1-0.2-0.1-0.2c-0.3,0-0.6,0-0.9,0.2
				c-0.4,0.2-0.8,0.4-1.2,0.6c0,0-0.1,0.1-0.1,0.1c-0.1,0.4,0,0.8,0.1,1.3c0,0.1,0.1,0.2,0.2,0.1c0.8-0.5,1.5-1.1,2.1-1.8
				C8.9,21.4,8.9,21.3,8.9,21.2z"/>
			<path class="st1" d="M21.7,26.5c-0.1,0.1-0.1,0.1-0.2,0.1c-0.3,0.2-0.5,0.3-0.8,0.5c-0.3,0.2-0.5,0.3-0.8,0.5
				c-0.1,0-0.2,0.1-0.3,0.1c-0.1,0-0.2,0.1-0.3,0.1c-0.5,0.2-1,0.5-1.6,0.7c-0.1,0.1-0.3,0.1-0.4,0.2c-0.1,0.1-0.3,0.1-0.5,0.1
				c0,0-0.1,0-0.1,0.1s0,0.1-0.1,0.1c-0.1,0-0.1,0.1-0.2,0.1c-0.3,0-0.5,0-0.8,0c-0.1,0-0.1,0-0.2,0c0,0-0.1,0-0.1,0
				c0,0,0-0.1,0-0.1c0.1-0.1,0.3-0.3,0.4-0.4c0,0,0,0,0.1,0c0,0,0,0,0.1,0c0,0,0.1,0,0.2,0c0,0,0.1,0,0.1,0c0.7,0,1.3-0.3,1.9-0.6
				c0.8-0.5,1.5-1.2,1.9-2.1c0-0.1,0.1-0.2,0.1-0.3c0-0.1,0-0.2-0.1-0.3c0,0-0.1,0-0.1-0.1c0,0,0,0,0-0.1c0,0,0-0.1,0-0.1
				c0,0,0,0,0.1,0c0,0,0.1,0,0.1,0c0.1-0.1,0.3-0.1,0.4,0c0.1,0,0.2,0.1,0.3,0.2c0.1,0.1,0.2,0.2,0.3,0.3c0.2,0.2,0.3,0.5,0.3,0.7
				C21.8,26.4,21.8,26.5,21.7,26.5z M16.5,26.3c-0.2-0.2-0.3-0.4-0.4-0.6c0-0.1,0-0.2,0-0.3c0-0.1,0.1-0.2,0.1-0.2
				c0.1-0.1,0.1-0.1,0.2-0.2c0.1-0.2,0.2-0.2,0.4-0.1c0,0,0.1,0,0.1,0c0,0,0.1,0,0.1-0.1c0,0,0.1,0,0.1,0c0.1,0,0.3-0.1,0.4-0.2
				c0.1-0.1,0.2-0.2,0.3-0.2c0.2-0.1,0.5-0.3,0.7-0.5c0.1,0,0.2,0,0.2,0c0.2,0.2,0.3,0.4,0.4,0.6c0.1,0.2,0.1,0.5,0.1,0.7
				c0,0.1,0,0.1,0.1,0.1c0,0,0,0,0.1,0c0,0,0.1,0,0.1,0c0,0-0.1,0.1-0.1,0.1c0,0-0.1,0.1-0.1,0.1c-0.1,0.2-0.2,0.4-0.2,0.7
				c0,0.1-0.1,0.1-0.2,0.2c-0.1,0-0.2,0-0.2,0c-0.1-0.1-0.2-0.1-0.3-0.2c-0.1-0.1-0.2-0.2-0.2-0.3c0-0.1-0.1-0.3-0.1-0.4
				c0,0,0,0,0,0l0.1-0.6c0-0.1,0-0.2-0.2-0.2c-0.3,0-0.4,0.1-0.6,0.3s-0.2,0.4-0.1,0.6c0.1,0.2,0.1,0.4,0.2,0.6
				c0,0.1,0.1,0.2,0.1,0.3c0,0.1-0.1,0.2-0.2,0.3c-0.1,0-0.2,0-0.3,0C16.9,26.6,16.7,26.5,16.5,26.3z"/>
			<path class="st1" d="M34.9,27.6c-0.1,0-0.2,0-0.2,0c-0.4-0.2-0.7-0.4-0.9-0.7c-0.2-0.3-0.5-0.4-0.9-0.4c-0.5,0-1.1,0-1.6,0
				c-0.1,0-0.1,0-0.1,0.1c-0.1,0.1-0.2,0.2-0.2,0.3c0.1,0,0.1,0.1,0.2,0.2c0.1,0.1,0.2,0.2,0.2,0.2c0.2,0.3,0.4,0.6,0.5,1
				c0.1,0.3,0.1,0.5,0,0.8c-0.1,0.2-0.2,0.3-0.5,0.4c-0.2,0.1-0.4,0.1-0.6,0.2c-0.4,0.2-0.9,0.4-1.4,0.5c-0.6,0.1-1.3,0.3-1.9,0.4
				c-0.5,0.1-1,0.2-1.5,0.2c-0.1,0-0.2,0-0.4,0c0,0-0.1,0-0.1-0.1c0,0,0-0.1,0.1-0.1c0.3-0.2,0.7-0.4,1-0.6c0,0,0,0,0.1,0
				c0,0,0,0,0,0.1c0,0.1,0,0.1,0.1,0.2c0,0,0.1,0.1,0.2,0.1c0.5,0,0.9-0.1,1.4-0.2c0.4,0,0.8-0.2,1.1-0.5c0.3-0.3,0.6-0.6,0.8-1
				c0.1-0.1,0.1-0.2,0.1-0.4l0,0c0.1-0.3,0-0.5-0.2-0.8c-0.1-0.1-0.2-0.3-0.3-0.4c-0.1-0.1-0.1-0.3-0.1-0.5c0,0-0.1,0-0.1,0
				c-0.3,0.1-0.6,0.2-0.9,0.3c-0.4,0.2-0.8,0.3-1.2,0.5c-0.2,0.1-0.4,0.2-0.6,0.3l0,0c-0.1,0-0.2,0-0.4,0c-0.1,0-0.2,0-0.3-0.1
				s-0.2-0.1-0.2-0.2c-0.1-0.1-0.1-0.2-0.2-0.2c0-0.1,0-0.2,0-0.2c0.3-0.3,0.7-0.6,1.1-0.7c0,0,0,0,0,0c0,0,0,0,0,0
				c0,0.1,0,0.2,0.2,0.2c0.3-0.1,0.6-0.1,0.9-0.2c0.2,0,0.3-0.1,0.5-0.1c0.2,0,0.4,0,0.6-0.1c0.1,0,0.1,0,0.2-0.1c0,0,0,0,0,0
				c0.2,0,0.3,0,0.5,0c0.1,0,0.2,0,0.3-0.1c0.1,0,0.2,0,0.3,0c0,0,0,0,0,0l0.5,0c0,0,0.1,0,0.1,0c0,0,0,0,0.1,0
				c0.1,0.1,0.3,0.1,0.4,0.1c0.1,0,0.3,0,0.4,0c0.2,0,0.4,0,0.7,0l0.2,0c0.1,0,0.1,0,0.1-0.1c0,0,0,0,0.1,0.1c0,0,0,0,0.1,0
				c0.2,0,0.4,0,0.7,0.1c0.1,0,0.2,0,0.2,0c0.2,0.1,0.3,0.1,0.5,0.1c0,0,0.1,0,0.1,0c0.2,0.3,0.4,0.6,0.5,0.9
				c0.1,0.1,0.1,0.3,0.1,0.5C35,27.5,35,27.6,34.9,27.6z M28.1,25.4c-0.1,0-0.1,0.1-0.2,0.1L28.1,25.4c0.1-0.2,0.3-0.4,0.5-0.5
				c0.2-0.1,0.4-0.3,0.5-0.4c0.2-0.2,0.3-0.3,0.5-0.5c0,0,0.1-0.1,0.1-0.1c0,0,0.1-0.1,0-0.1c0-0.1-0.1-0.1-0.1-0.1
				c-0.2-0.2-0.3-0.4-0.5-0.6c0-0.1,0-0.1,0-0.2c0.3-0.1,0.5-0.2,0.8-0.4c0.1,0,0.1,0,0.2,0c0.2,0.1,0.5,0.1,0.7,0
				c0.1,0,0.2,0,0.2,0c0.1,0,0.2,0,0.3,0c0.2,0,0.4-0.1,0.5-0.1c0.1,0,0.2,0,0.3,0.1c0.2,0.2,0.3,0.5,0.5,0.8
				c0.2,0.3,0.3,0.6,0.3,0.9c0,0.1,0,0.3,0,0.4c-0.1,0.1-0.2,0.3-0.2,0.4c0,0-0.1,0.1-0.2,0.1c-0.3,0-0.5-0.1-0.8-0.1
				c-0.1,0-0.2,0-0.4,0c-0.2,0-0.4,0-0.6-0.1c0,0-0.1,0-0.1,0c-0.1,0-0.3,0-0.4-0.1c-0.1-0.1-0.2-0.1-0.4-0.1c-0.2,0-0.4,0-0.6,0.1
				c-0.4,0.2-0.8,0.5-1.2,0.8C28.3,25.3,28.2,25.4,28.1,25.4z"/>
			<path class="st1" d="M46.8,28.4c-0.1,0-0.2,0-0.3,0.1c-0.3,0.1-0.6,0.2-1,0.3l-0.8,0.3c-0.3,0.1-0.6,0.1-0.9,0.1
				c-0.1,0-0.1,0-0.2,0c-0.4,0.1-0.8,0.2-1.2,0.5c-0.1,0.1-0.2,0.2-0.3,0.3c0,0,0,0,0,0.1c0.1,0,0.2,0.1,0.3,0.1
				c0.9,0.5,1.4,1.2,1.7,2.1c0,0.1,0,0.1,0,0.2c0.1,0.3-0.1,0.4-0.4,0.4c-0.2,0-0.3-0.1-0.5-0.2c-0.1,0-0.1,0-0.2,0
				c-0.4,0-0.8-0.1-1.1-0.1l-0.1,0c0,0,0,0,0.1,0l0.4-0.1c0,0,0,0,0.1,0c0,0,0,0-0.1,0c-0.1,0-0.3,0-0.4,0.1c-0.5,0.2-1,0.5-1.5,0.7
				c-0.1,0.1-0.2,0.1-0.3,0.1c0,0-0.1,0-0.1,0c0,0,0,0,0-0.1l0.1,0c0.6-0.3,1.2-0.7,1.7-1c0.3-0.2,0.4-0.4,0.3-0.7
				c0-0.1-0.1-0.1-0.1-0.1c-0.2-0.1-0.4-0.2-0.6-0.2c-0.1,0-0.3,0-0.4,0c-0.1,0-0.2,0-0.3,0.1c-0.2,0.1-0.3,0-0.5-0.1
				c-0.3-0.2-0.6-0.5-0.8-0.8c0-0.1-0.1-0.1-0.1-0.2c0-0.1,0-0.2,0.1-0.3c0.1-0.1,0.1-0.1,0.2-0.2c0.2-0.1,0.3-0.2,0.4-0.3
				c0.1-0.1,0.2-0.1,0.3,0c0.1,0,0.2,0,0.3,0c0.1,0,0.2,0,0.3,0c0.6-0.3,1.1-0.5,1.6-0.8c0.5-0.3,1-0.6,1.5-1
				c0.2-0.2,0.4-0.4,0.7-0.6c0.1-0.1,0.1-0.1,0.1-0.2s0-0.2-0.1-0.2c-0.1-0.2-0.3-0.3-0.6-0.3c-0.3,0-0.5,0.1-0.8,0.1
				c-0.3,0-0.5,0.1-0.8,0.1c-0.1,0.1-0.3,0.1-0.4,0.2c-0.1,0.1-0.3,0.1-0.4,0.2c-0.1,0.1-0.3,0.2-0.4,0.2c-0.1,0.1-0.2,0.1-0.3,0.2
				c-0.1,0-0.1,0.1-0.2,0.1c-0.1,0.1-0.1,0.1-0.1,0.2c0,0.1-0.1,0.1-0.1,0.2c0,0.1,0,0.1-0.1,0.2c-0.1,0-0.1,0.1-0.2,0.1
				c-0.2,0.3-0.4,0.6-0.5,0.8c0,0-0.1,0.1-0.1,0.1c-0.2,0-0.3,0-0.5,0c-0.6-0.1-1.1-0.4-1.5-0.9c-0.1-0.1-0.1-0.1-0.1-0.2
				c-0.1-0.1,0-0.1,0-0.2c0.1-0.1,0.1-0.1,0.1-0.2c0.2-0.2,0.4-0.4,0.6-0.5c0.2-0.1,0.5-0.2,0.7-0.3c0.5-0.2,1-0.4,1.4-0.6
				c0.3-0.1,0.6-0.2,0.9-0.3c0.6-0.1,1.1-0.3,1.7-0.3c0.3-0.1,0.5-0.1,0.8-0.1c0.3,0,0.7,0,0.9,0c0.3,0,0.5,0.1,0.7,0.2
				c0.2,0.1,0.4,0.3,0.5,0.5c0.2,0.2,0.4,0.4,0.5,0.6c0.2,0.2,0.3,0.5,0.4,0.7c0.1,0.2,0.1,0.5,0.1,0.8
				C47.2,28.3,47.1,28.5,46.8,28.4z"/>
			<path class="st1" d="M58.8,30.4c0,0.1-0.1,0.1-0.1,0.2c-0.1,0.5-0.8,1-1.9,1.5c-0.3,0.2-0.5,0.5-0.8,0.7
				c-0.4,0.3-0.8,0.6-1.2,0.8c-0.5,0.3-0.9,0.6-1.4,0.9c-0.1,0.1-0.2,0.2-0.3,0.4c-0.1,0.1-0.3,0.2-0.5,0.2
				c-0.2-0.1-0.4-0.2-0.5-0.3c-0.1-0.2-0.3-0.3-0.4-0.5c-0.2-0.3-0.3-0.6-0.5-0.9c0-0.1,0-0.3,0-0.4c0-0.3,0-0.5,0-0.8
				c0-0.4,0.1-0.8,0.2-1.1c0.3-0.6,0.5-1.2,0.7-1.8c0.3-0.8,0.5-1.5,0.5-2.3c0-0.1,0-0.2,0-0.3c0-0.1,0-0.2,0-0.3c0-0.1,0-0.1,0-0.2
				c0.2-0.1,0.4-0.2,0.6-0.3c0.2-0.1,0.3-0.1,0.5,0.1c0.4,0.4,0.8,0.9,1,1.5c0,0.2,0.1,0.4,0.1,0.5c-0.1,0.1-0.1,0.2-0.2,0.3
				c-0.1,0.1-0.1,0.2-0.2,0.3c-0.4,0.4-0.8,1-1.4,2c-0.2,0.3-0.3,0.6-0.5,0.9c-0.1,0.2-0.1,0.5-0.1,0.7c0,0.2,0,0.5,0.1,0.7
				c0,0,0,0,0,0c0,0.1,0.1,0.2,0.2,0.3c0.1,0.1,0.2,0.1,0.3,0.2c0.1,0.1,0.2,0.1,0.3,0.1c0.7-0.1,1.3-0.3,1.9-0.7
				c0.8-0.5,1.9-1.3,3.3-2.4C58.7,30.5,58.8,30.4,58.8,30.4z"/>
			<path class="st1" d="M62.9,34.5c0.3,0.1,0.4,0.2,0.6,0.5c0.1,0.2,0.2,0.5,0.1,0.7c-0.1,0.3-0.3,0.5-0.5,0.7
				c-0.3,0.1-0.6,0.1-0.8-0.1c-0.4-0.3-0.6-0.6-0.6-1.1c0-0.1,0.1-0.3,0.2-0.4c0.1-0.1,0.2-0.2,0.4-0.2
				C62.4,34.4,62.7,34.4,62.9,34.5z M64.8,29c0,0.2-0.1,0.4-0.2,0.6c0,0.2-0.1,0.3-0.1,0.5c-0.2,0.7-0.3,1.4-0.5,2.1
				c0,0.1-0.1,0.2-0.1,0.2c-0.3,0.4-0.5,0.9-0.7,1.3c-0.1,0.2-0.3,0.3-0.5,0.4c0,0,0,0-0.1,0c0,0,0,0,0-0.1c0.1-0.2,0.1-0.3,0.1-0.5
				c0-0.2,0-0.4,0-0.5c0-0.5,0-1-0.1-1.4c0-0.6-0.1-1.2-0.1-1.8c0-0.6,0.1-1.1,0.2-1.7c0-0.1,0.1-0.1,0.2-0.2c0.1,0,0.2,0,0.3-0.1
				c0.2,0,0.4,0,0.7,0c0.2,0,0.4,0.1,0.7,0.1c0.2,0,0.4,0.2,0.4,0.5C64.8,28.6,64.8,28.8,64.8,29z"/>
			<path class="st1" d="M68.9,35.4c0.3,0.1,0.4,0.2,0.6,0.5c0.1,0.2,0.2,0.5,0.1,0.7c-0.1,0.3-0.3,0.5-0.5,0.7
				c-0.3,0.1-0.6,0.1-0.8-0.1c-0.4-0.3-0.6-0.6-0.6-1.1c0-0.1,0.1-0.3,0.2-0.4c0.1-0.1,0.2-0.2,0.4-0.2
				C68.4,35.4,68.6,35.3,68.9,35.4z M70.7,30c0,0.2-0.1,0.4-0.2,0.6c0,0.2-0.1,0.3-0.1,0.5c-0.2,0.7-0.3,1.4-0.5,2.1
				c0,0.1-0.1,0.2-0.1,0.2c-0.3,0.4-0.5,0.9-0.7,1.3c-0.1,0.2-0.3,0.3-0.5,0.4c0,0,0,0-0.1,0c0,0,0,0,0-0.1c0-0.2,0.1-0.3,0.1-0.5
				c0-0.2,0-0.4,0-0.5c0-0.5,0-1-0.1-1.4c0-0.6-0.1-1.2-0.1-1.8c0-0.6,0.1-1.1,0.2-1.7c0-0.1,0.1-0.1,0.2-0.2c0.1,0,0.2,0,0.3-0.1
				c0.2,0,0.4,0,0.7,0c0.2,0,0.4,0.1,0.7,0.1c0.2,0,0.4,0.2,0.4,0.5C70.7,29.6,70.7,29.8,70.7,30z"/>
		</g>
		<line class="st2" x1="7.1" y1="0.5" x2="76" y2="22.2"/>
		<line class="st2" x1="0.3" y1="43.5" x2="72.5" y2="43.5"/>
	</g>
</g>
</svg>
