<?xml version="1.0" encoding="utf-8"?>
<!-- Generator: Adobe Illustrator 25.0.0, SVG Export Plug-In . SVG Version: 6.00 Build 0)  -->
<svg version="1.1" id="レイヤー_1" xmlns="http://www.w3.org/2000/svg" xmlns:xlink="http://www.w3.org/1999/xlink" x="0px"
	 y="0px" viewBox="0 0 77.4 38" style="enable-background:new 0 0 77.4 38;" xml:space="preserve">
<style type="text/css">
	.st0{fill:none;stroke:#FFFFFF;stroke-miterlimit:10;}
	.st1{enable-background:new    ;}
	.st2{fill:#FFFFFF;}
</style>
<g id="レイヤー_2_1_">
	<g id="レイヤー_1-2">
		<line class="st0" x1="0.1" y1="16.4" x2="70.6" y2="0.5"/>
		<line class="st0" x1="2" y1="37.5" x2="74.3" y2="37.5"/>
		<g class="st1">
			<path class="st2" d="M12.4,24.4c0,0.1-0.1,0.1-0.2,0.1c-0.1,0-0.3,0.1-0.4,0.2c-0.2,0.2-0.5,0.4-0.9,0.5c0,0,0,0,0,0
				c-0.2,0.1-0.3,0.2-0.5,0.3c-0.1,0.1-0.3,0.1-0.4,0.1c-0.1,0-0.3,0-0.4,0c-0.2,0-0.4,0-0.5,0.1c-0.2,0.1-0.3,0.2-0.4,0.3
				c-0.1,0.1-0.3,0.3-0.4,0.4c0,0,0,0.1,0,0.2c0.1,0.2,0.1,0.3,0.2,0.5c0.5,0.8,0.9,1.7,1.4,2.5c0.2,0.3,0.3,0.6,0.3,1
				c0,0.1-0.1,0.2-0.2,0.2c-0.2,0-0.4-0.1-0.6-0.2c-0.2-0.2-0.3-0.3-0.5-0.5c-0.1,0-0.1-0.1,0-0.1c0,0,0,0,0,0c0-0.1,0-0.2,0-0.2
				c0-0.1,0-0.2,0-0.2c-0.3-0.6-0.6-1.2-1-1.7c-0.4-0.6-0.7-1.1-1.1-1.7c0-0.1-0.1-0.1-0.1,0c-0.2,0.2-0.3,0.5-0.5,0.8
				c-0.2,0.3-0.3,0.5-0.3,0.8c0,0.2-0.1,0.3-0.2,0.4c-0.1,0.1-0.3,0.1-0.4,0.2c-0.2,0-0.4,0-0.6-0.1C4.3,28,4.1,27.9,4,27.7
				c-0.1-0.1-0.1-0.1-0.1-0.2c0.1-0.2,0.2-0.5,0.3-0.7c0.1,0,0.1-0.1,0.2-0.1l0.2-0.1c0.6-0.5,1.1-0.9,1.7-1.3c0,0,0.1-0.1,0-0.1
				c-0.1-0.2-0.3-0.5-0.4-0.7c-0.3-0.6-0.6-1.2-0.9-1.7c-0.1-0.1,0-0.3,0.1-0.4c0.1-0.1,0.2-0.3,0.4-0.4c0.1-0.1,0.1-0.1,0.2,0
				C6,22.2,6.4,22.6,6.7,23c0.1,0.1,0.1,0.3,0.2,0.5c0,0,0,0,0,0c0.1,0.3,0.3,0.6,0.4,0.9c0,0,0.1,0,0.1,0c0.4-0.3,0.7-0.6,1.1-0.9
				L9.1,23c0.1-0.1,0.2-0.1,0.3-0.3c0.1-0.1,0.2-0.1,0.4-0.1c0.4,0.1,0.7,0.2,1.1,0.3c0.3,0.1,0.6,0.3,0.9,0.6
				c0.2,0.2,0.4,0.4,0.5,0.7C12.4,24.3,12.4,24.4,12.4,24.4z M9.7,23.9c-0.1-0.1-0.1-0.1-0.2-0.2c-0.3,0.1-0.6,0.2-0.9,0.4
				c-0.3,0.3-0.7,0.6-1,0.9c0,0,0,0.1,0,0.1c0.1,0.4,0.2,0.8,0.4,1.2c0.1,0.1,0.1,0.1,0.2,0c0.6-0.7,1.1-1.5,1.6-2.3
				C9.7,24,9.7,24,9.7,23.9z"/>
			<path class="st2" d="M18.3,26.8c-0.2-0.1-0.4-0.3-0.5-0.5c-0.1-0.1-0.1-0.1-0.1-0.2c0-0.1,0-0.2,0.1-0.3c0-0.1,0.1-0.2,0.1-0.3
				c0-0.2,0.1-0.3,0.3-0.2c0,0,0.1,0,0.1,0c0,0,0.1-0.1,0.1-0.1c0,0,0.1-0.1,0.1-0.1c0.1,0,0.2-0.1,0.3-0.2c0.1-0.1,0.2-0.2,0.2-0.3
				c0.2-0.2,0.4-0.4,0.5-0.6c0.1-0.1,0.2-0.1,0.2,0c0.2,0.1,0.4,0.3,0.5,0.5c0.2,0.2,0.2,0.4,0.3,0.7c0,0.1,0,0.1,0.1,0
				c0,0,0,0,0.1,0c0,0,0.1,0,0.1-0.1c0,0-0.1,0.1-0.1,0.1c0,0,0,0.1,0,0.2c0,0.2-0.1,0.5-0.1,0.7c0,0.1-0.1,0.2-0.1,0.2
				c-0.1,0-0.2,0-0.2,0c-0.1,0-0.3-0.1-0.4-0.1c-0.1-0.1-0.2-0.1-0.3-0.2c-0.1-0.1-0.1-0.2-0.2-0.4c0,0,0,0,0,0L19.5,25
				c0-0.1-0.1-0.2-0.2-0.1c-0.2,0-0.4,0.2-0.5,0.4c-0.1,0.2-0.1,0.4,0.1,0.6c0.1,0.2,0.2,0.3,0.4,0.5c0.1,0.1,0.1,0.2,0.1,0.3
				c0,0.1,0,0.2-0.1,0.3c-0.1,0.1-0.2,0.1-0.3,0.1C18.7,27.1,18.5,27,18.3,26.8z M23.4,25.7c0,0.1-0.1,0.1-0.1,0.2
				c-0.2,0.2-0.4,0.5-0.6,0.7c-0.2,0.2-0.4,0.4-0.6,0.6c-0.1,0.1-0.2,0.1-0.3,0.2c-0.1,0-0.2,0.1-0.3,0.2c-0.4,0.4-0.9,0.7-1.3,1.1
				c-0.1,0.1-0.2,0.2-0.4,0.3c-0.1,0.1-0.3,0.2-0.4,0.2c0,0,0,0-0.1,0.1c0,0,0,0.1,0,0.1c0,0.1-0.1,0.1-0.1,0.1
				c-0.2,0.1-0.5,0.2-0.7,0.2c0,0-0.1,0-0.1,0.1c0,0,0,0-0.1,0c0,0,0-0.1,0-0.1c0.1-0.2,0.2-0.4,0.3-0.5c0,0,0,0,0,0c0,0,0,0,0.1,0
				c0,0,0.1,0,0.2,0c0,0,0.1,0,0.1,0c0.7-0.2,1.2-0.6,1.7-1.1c0.7-0.7,1.1-1.6,1.3-2.6c0-0.1,0-0.2,0-0.3c0-0.1-0.1-0.2-0.2-0.2
				c0,0-0.1,0-0.1-0.1c0,0,0-0.1,0-0.1c0,0,0-0.1,0-0.1c0,0,0-0.1,0.1-0.1c0,0,0.1,0,0.1,0c0.1-0.1,0.2-0.1,0.4-0.1s0.3,0,0.4,0.1
				c0.1,0.1,0.2,0.1,0.3,0.2c0.2,0.2,0.4,0.4,0.5,0.6C23.4,25.5,23.4,25.6,23.4,25.7z"/>
			<path class="st2" d="M36.4,23.3c-0.1,0.1-0.1,0.1-0.2,0.1c-0.4-0.1-0.8-0.2-1.1-0.5c-0.3-0.2-0.6-0.2-1-0.2
				c-0.5,0.1-1.1,0.3-1.6,0.5c-0.1,0-0.1,0.1-0.1,0.1c-0.1,0.1-0.1,0.2-0.1,0.3c0.1,0,0.2,0.1,0.3,0.1c0.1,0,0.2,0.1,0.3,0.2
				c0.3,0.3,0.5,0.5,0.7,0.8c0.2,0.2,0.2,0.5,0.2,0.8c0,0.2-0.2,0.4-0.3,0.5c-0.2,0.1-0.4,0.2-0.5,0.4c-0.3,0.3-0.8,0.6-1.2,0.9
				c-0.6,0.3-1.1,0.6-1.7,0.9c-0.4,0.2-0.9,0.4-1.4,0.6c-0.1,0-0.2,0.1-0.3,0.1c0,0-0.1,0-0.1,0c0,0,0-0.1,0-0.1
				c0.3-0.3,0.6-0.6,0.8-0.9c0,0,0,0,0.1,0c0,0,0,0,0,0.1c0,0.1,0,0.1,0.1,0.1c0.1,0,0.1,0,0.2,0c0.5-0.2,0.9-0.3,1.3-0.5
				c0.4-0.2,0.7-0.4,1-0.8c0.3-0.3,0.4-0.7,0.5-1.1c0-0.1,0-0.2,0-0.4l0,0c0-0.3-0.1-0.5-0.4-0.7c-0.2-0.1-0.3-0.2-0.4-0.3
				c-0.1-0.1-0.2-0.3-0.3-0.4c0,0-0.1,0-0.1,0c-0.3,0.1-0.5,0.3-0.8,0.5c-0.4,0.3-0.7,0.5-1.1,0.8c-0.2,0.1-0.3,0.3-0.5,0.5l0,0
				c-0.1,0-0.2,0.1-0.3,0.1c-0.1,0-0.2,0-0.3,0c-0.1,0-0.2-0.1-0.3-0.1c-0.1-0.1-0.2-0.1-0.2-0.2c0-0.1-0.1-0.2,0-0.2
				c0.2-0.4,0.5-0.7,0.8-1c0,0,0,0,0,0c0,0,0,0,0,0c0,0.1,0.1,0.2,0.2,0.1c0.3-0.1,0.5-0.2,0.8-0.4c0.1-0.1,0.3-0.2,0.5-0.2
				c0.2-0.1,0.4-0.1,0.5-0.2c0.1,0,0.1-0.1,0.2-0.1c0,0,0,0,0,0c0.2-0.1,0.3-0.1,0.5-0.2c0.1,0,0.2-0.1,0.3-0.1c0.1,0,0.2-0.1,0.3,0
				c0,0,0,0,0,0l0.5-0.2c0,0,0.1,0,0.1-0.1c0,0,0-0.1,0.1-0.1c0.1,0,0.3,0,0.4-0.1c0.1-0.1,0.3-0.1,0.4-0.1c0.2,0,0.4-0.1,0.6-0.2
				l0.2,0c0.1,0,0.1,0,0.1-0.1c0,0,0,0,0.1,0c0,0,0.1,0,0.1,0c0.2,0,0.4-0.1,0.7-0.1c0.1,0,0.2,0,0.2,0c0.2,0,0.4,0,0.5-0.1
				c0,0,0.1,0,0.1,0c0.3,0.2,0.5,0.4,0.7,0.7c0.1,0.1,0.2,0.3,0.2,0.4C36.5,23.2,36.5,23.3,36.4,23.3z M29.3,23
				c-0.1,0.1-0.1,0.1-0.2,0.2L29.3,23c0.1-0.2,0.2-0.4,0.4-0.6c0.2-0.2,0.3-0.3,0.4-0.5c0.1-0.2,0.2-0.4,0.3-0.6
				c0,0,0.1-0.1,0.1-0.2c0-0.1,0-0.1,0-0.1c0,0-0.1-0.1-0.2-0.1c-0.2-0.2-0.4-0.3-0.6-0.5c0,0,0-0.1,0-0.2c0.2-0.2,0.4-0.4,0.7-0.6
				c0.1,0,0.1,0,0.2,0c0.2,0,0.5,0,0.7-0.2c0.1-0.1,0.1-0.1,0.2-0.1c0.1,0,0.2-0.1,0.2-0.1c0.2-0.1,0.3-0.2,0.5-0.3
				c0.1-0.1,0.2-0.1,0.3,0c0.2,0.2,0.5,0.4,0.7,0.6c0.2,0.2,0.4,0.5,0.6,0.8c0,0.1,0.1,0.2,0.1,0.4c0,0.1-0.1,0.3-0.1,0.4
				c0,0.1-0.1,0.1-0.1,0.1c-0.2,0-0.5,0.1-0.8,0.1c-0.1,0-0.2,0.1-0.3,0.1c-0.2,0-0.4,0.1-0.6,0c0,0-0.1,0-0.1,0c-0.1,0-0.2,0-0.4,0
				c-0.1,0-0.3,0-0.4,0c-0.2,0-0.4,0.1-0.5,0.2c-0.3,0.3-0.7,0.7-1,1.1C29.4,22.8,29.3,22.9,29.3,23z"/>
			<path class="st2" d="M48.1,21c-0.1,0-0.2,0.1-0.3,0.1c-0.3,0.2-0.6,0.4-0.9,0.5l-0.7,0.5c-0.3,0.2-0.5,0.3-0.8,0.4
				c-0.1,0-0.1,0-0.2,0.1c-0.4,0.2-0.7,0.5-1.1,0.8c-0.1,0.1-0.1,0.2-0.2,0.3c0,0,0,0,0,0.1c0.1,0,0.2,0,0.3,0
				c1,0.2,1.7,0.8,2.2,1.6c0,0.1,0.1,0.1,0.1,0.2c0.1,0.3,0.1,0.4-0.3,0.5c-0.2,0-0.3,0-0.5-0.1c-0.1,0-0.1,0-0.2,0
				c-0.4,0.1-0.7,0.1-1.1,0.2l-0.1,0c0,0,0,0,0-0.1l0.3-0.2c0,0,0,0,0,0c0,0,0,0-0.1,0c-0.1,0-0.3,0.1-0.4,0.2
				c-0.4,0.4-0.8,0.7-1.3,1.1c-0.1,0.1-0.2,0.2-0.3,0.2c0,0-0.1,0-0.1,0c0,0,0-0.1,0-0.1l0.1-0.1c0.5-0.5,1-0.9,1.4-1.4
				c0.2-0.2,0.3-0.5,0.1-0.7c0,0-0.1-0.1-0.1-0.1c-0.2,0-0.5,0-0.7,0c-0.1,0-0.3,0-0.4,0.1c-0.1,0-0.2,0.1-0.3,0.1
				c-0.2,0.1-0.3,0.1-0.5,0c-0.4-0.1-0.7-0.3-1-0.5c-0.1-0.1-0.1-0.1-0.2-0.2c0-0.1,0-0.2,0-0.3c0-0.1,0.1-0.2,0.1-0.2
				c0.1-0.1,0.2-0.3,0.3-0.4c0.1-0.1,0.2-0.1,0.3-0.1c0.1,0,0.2,0,0.3,0c0.1,0,0.2,0,0.3-0.1c0.5-0.4,0.9-0.8,1.4-1.2
				c0.4-0.4,0.8-0.9,1.2-1.4c0.2-0.2,0.3-0.5,0.5-0.7c0-0.1,0-0.2,0-0.2c0-0.1-0.1-0.2-0.1-0.2c-0.2-0.1-0.4-0.2-0.6-0.1
				c-0.3,0.1-0.5,0.2-0.8,0.3c-0.3,0.1-0.5,0.2-0.8,0.3c-0.1,0.1-0.2,0.2-0.4,0.3c-0.1,0.1-0.2,0.2-0.4,0.3
				c-0.1,0.1-0.2,0.2-0.3,0.3c-0.1,0.1-0.1,0.2-0.2,0.3c0,0-0.1,0.1-0.1,0.1c0,0.1-0.1,0.1-0.1,0.2c0,0.1,0,0.1,0,0.2
				c0,0.1,0,0.1-0.1,0.2c0,0.1-0.1,0.1-0.1,0.2c-0.1,0.3-0.2,0.6-0.3,1c0,0,0,0.1-0.1,0.1c-0.1,0.1-0.3,0.1-0.4,0.1
				c-0.6,0-1.1-0.1-1.6-0.5c-0.1,0-0.1-0.1-0.2-0.2c-0.1-0.1-0.1-0.1,0-0.2c0-0.1,0.1-0.2,0.1-0.2c0.1-0.2,0.3-0.5,0.5-0.6
				c0.2-0.2,0.4-0.4,0.6-0.5c0.4-0.3,0.8-0.6,1.2-1c0.2-0.2,0.5-0.4,0.8-0.5c0.5-0.3,1-0.5,1.5-0.8c0.2-0.1,0.5-0.2,0.7-0.3
				c0.3-0.1,0.6-0.2,0.9-0.2c0.3-0.1,0.5-0.1,0.7,0c0.2,0.1,0.4,0.2,0.6,0.3c0.2,0.2,0.5,0.3,0.7,0.5c0.2,0.2,0.4,0.4,0.5,0.6
				c0.1,0.2,0.3,0.5,0.3,0.7C48.5,20.8,48.4,21,48.1,21z"/>
		</g>
		<g class="st1">
			<path class="st2" d="M60.2,19.8c0,0.1,0,0.1-0.1,0.2c0,0.5-0.5,1.2-1.4,1.9c-0.2,0.3-0.4,0.6-0.6,0.9c-0.3,0.4-0.6,0.7-0.9,1.1
				c-0.4,0.4-0.7,0.8-1.1,1.2c-0.1,0.1-0.2,0.3-0.2,0.5c-0.1,0.2-0.2,0.3-0.4,0.3c-0.2,0-0.4-0.1-0.6-0.2c-0.2-0.1-0.3-0.2-0.5-0.4
				c-0.3-0.2-0.5-0.5-0.7-0.7c-0.1-0.1-0.1-0.3-0.1-0.4c-0.1-0.3-0.2-0.5-0.2-0.8c-0.1-0.4-0.1-0.8-0.1-1.2c0.1-0.6,0.2-1.3,0.2-1.9
				c0.1-0.8,0-1.6-0.1-2.4c0-0.1,0-0.2-0.1-0.2c0-0.1-0.1-0.2-0.1-0.3c0-0.1,0-0.1,0-0.2c0.2-0.2,0.3-0.3,0.5-0.5
				c0.2-0.1,0.3-0.1,0.5,0c0.5,0.3,1,0.7,1.3,1.2c0.1,0.2,0.1,0.3,0.2,0.5c0,0.1-0.1,0.2-0.1,0.3c0,0.1-0.1,0.2-0.1,0.3
				c-0.3,0.5-0.5,1.2-0.8,2.3c-0.1,0.3-0.2,0.6-0.2,1c0,0.2,0,0.5,0.1,0.7c0.1,0.2,0.2,0.5,0.3,0.7c0,0,0,0,0,0
				c0.1,0.1,0.2,0.2,0.3,0.2c0.1,0,0.2,0.1,0.3,0.1c0.1,0,0.2,0,0.4,0c0.6-0.2,1.2-0.6,1.6-1.1c0.6-0.7,1.5-1.7,2.6-3.2
				C60.1,19.9,60.2,19.9,60.2,19.8z"/>
		</g>
		<g class="st1">
			<path class="st2" d="M68.6,16.6c0,0.2,0,0.4,0,0.6c0,0.2,0,0.3,0,0.5c0,0.7,0,1.4,0,2.1c0,0.1,0,0.2,0,0.3
				c-0.1,0.5-0.3,1-0.4,1.4c0,0.2-0.2,0.4-0.3,0.5c0,0,0,0-0.1,0c0,0,0,0,0-0.1c0-0.2,0-0.3-0.1-0.5c-0.1-0.2-0.1-0.3-0.2-0.5
				c-0.1-0.5-0.3-0.9-0.4-1.4c-0.2-0.5-0.4-1.1-0.5-1.7c-0.1-0.6-0.2-1.1-0.3-1.7c0-0.1,0-0.2,0.1-0.2c0.1-0.1,0.1-0.1,0.2-0.1
				c0.2-0.1,0.4-0.2,0.6-0.2c0.2,0,0.4-0.1,0.7-0.1c0.3,0,0.4,0.1,0.5,0.3C68.5,16.2,68.6,16.4,68.6,16.6z M68.2,22.4
				c0.3,0,0.5,0.1,0.7,0.3c0.2,0.2,0.3,0.4,0.3,0.7c0,0.3-0.1,0.6-0.3,0.8c-0.2,0.2-0.5,0.2-0.8,0.2c-0.5-0.1-0.8-0.5-0.9-0.9
				c0-0.1,0-0.3,0.1-0.4c0.1-0.1,0.2-0.2,0.3-0.3C67.7,22.5,68,22.4,68.2,22.4z"/>
			<path class="st2" d="M74.5,16c0,0.2,0,0.4,0,0.6c0,0.2,0,0.3,0,0.5c0,0.7,0,1.4,0,2.1c0,0.1,0,0.2,0,0.3c-0.1,0.5-0.3,1-0.4,1.4
				c0,0.2-0.2,0.4-0.3,0.5c0,0,0,0-0.1,0c0,0,0,0,0-0.1c0-0.2,0-0.3-0.1-0.5c-0.1-0.2-0.1-0.3-0.2-0.5c-0.1-0.5-0.3-0.9-0.4-1.4
				c-0.2-0.5-0.4-1.1-0.5-1.7c-0.1-0.6-0.2-1.1-0.3-1.7c0-0.1,0-0.2,0.1-0.2c0.1-0.1,0.1-0.1,0.2-0.1c0.2-0.1,0.4-0.2,0.6-0.2
				c0.2,0,0.4-0.1,0.7-0.1c0.3,0,0.4,0.1,0.5,0.3C74.5,15.6,74.5,15.8,74.5,16z M74.2,21.7c0.3,0,0.5,0.1,0.7,0.3
				c0.2,0.2,0.3,0.4,0.3,0.7c0,0.3-0.1,0.6-0.3,0.8c-0.2,0.2-0.5,0.2-0.8,0.2c-0.5-0.1-0.8-0.5-0.9-0.9c0-0.1,0-0.3,0.1-0.4
				c0.1-0.1,0.2-0.2,0.3-0.3C73.7,21.8,73.9,21.7,74.2,21.7z"/>
		</g>
	</g>
</g>
</svg>
